<svg width="50" height="37" fill="none" xmlns="http://www.w3.org/2000/svg"><g clip-path="url(#clip0_465_375)"><path fill-rule="evenodd" clip-rule="evenodd" d="M.61 31.7V2.01C.61.9 1.52 0 2.641 0h15.004c1.51 0 2.494 1.573 1.818 2.91L4.46 32.6C3.5 34.497.61 33.822.61 31.7zm50 0V2.01C50.61.9 49.7 0 48.576 0H33.573c-1.511 0-2.494 1.573-1.818 2.91L46.759 32.6c.959 1.897 3.85 1.222 3.85-.9zm-23.984 3.29V5.3c0-2.121 2.89-2.796 3.85-.898L45.48 34.09c.676 1.337-.307 2.91-1.818 2.91H28.658c-1.122 0-2.032-.9-2.032-2.01zM24.593 5.3v29.69c0 1.11-.91 2.01-2.032 2.01H7.557c-1.511 0-2.494-1.573-1.818-2.91L20.743 4.402c.959-1.898 3.85-1.223 3.85.899z" fill="url(#paint0_linear_465_375)"/></g><defs><linearGradient id="paint0_linear_465_375" x1="25.813" y1="37" x2="25.813" y2="0" gradientUnits="userSpaceOnUse"><stop offset=".479" stop-color="#275553"/><stop offset="1" stop-color="#F47648"/></linearGradient><clipPath id="clip0_465_375"><path fill="#fff" d="M0 0h50v37H0z"/></clipPath></defs></svg>